# xmcd CD database file
#
# Track frame offsets:
#	150
#	20430
#	43380
#	60818
#	84119
#	122764
#	138815
#	181178
#	202718
#	240744
#
# Disc length: 3771 seconds
#
# Revision: 0
# Processed by: cddbd v1.5.2PL0 Copyright (c) Steve Scherf et al.
# Submitted via: CDex 1.51
#
DISCID=720eb90a
DTITLE=Stuart McCallum - Eponymous
DYEAR=2009
DGENRE=Jazz
TTITLE0=Last Song
TTITLE1=March
TTITLE2=Involuntary Mental Hospitalisation
TTITLE3=Climactic Organism
TTITLE4=Indigenous
TTITLE5=DirtyAri
TTITLE6=Sleep Breathing
TTITLE7=The Filler
TTITLE8=7point4point1
TTITLE9=Lost and Found
EXTD=YEAR: 2009
EXTT0=
EXTT1=
EXTT2=
EXTT3=
EXTT4=
EXTT5=
EXTT6=
EXTT7=
EXTT8=
EXTT9=
PLAYORDER=
